<svg width="64" height="64" viewBox="0 0 64 64" fill="none" xmlns="http://www.w3.org/2000/svg">
<circle cx="32" cy="32" r="22" fill="#E3453D"/>
<path d="M39.4271 33.3122C38.89 32.3575 38.0307 32.3575 37.4936 33.3122L34.1025 39.3059C33.5654 40.2449 34.0104 41.0274 35.0692 41.0274H41.7901C42.8643 41.0274 43.3093 40.2449 42.7722 39.3059L39.4271 33.3122Z" fill="white"/>
<path d="M35.4987 26.2543L33.734 23.0775L32.9821 21.716C32.4451 20.7613 31.5857 20.7613 31.0486 21.716L21.2281 39.2904C20.691 40.245 21.136 41.0118 22.2101 41.0118H24.9415H26.8135H27.1358C28.0258 41.0118 29.1306 40.3702 29.5756 39.5721L35.4987 29.1182C35.9283 28.3514 35.9283 27.0525 35.4987 26.2543Z" fill="white"/>
</svg>
