<svg width="64" height="64" viewBox="0 0 64 64" fill="none" xmlns="http://www.w3.org/2000/svg">
<path d="M23.4544 28.4892L31.9992 19.9447L40.5485 28.4937L45.5204 23.5218L31.9992 10.0001L18.4824 23.5172L23.4544 28.4892Z" fill="#F3BA2F"/>
<path d="M19.944 31.9993L14.9722 27.0275L10.0001 31.9996L14.9719 36.9715L19.944 31.9993Z" fill="#F3BA2F"/>
<path d="M23.4543 35.5108L31.9991 44.0553L40.5481 35.5066L45.5228 40.4758L45.5204 40.4786L31.9991 53.9999L18.482 40.4831L18.4751 40.4762L23.4543 35.5108Z" fill="#F3BA2F"/>
<path d="M49.0279 36.9738L54 32.0017L49.0281 27.0298L44.056 32.0019L49.0279 36.9738Z" fill="#F3BA2F"/>
<path d="M37.0421 31.9974H37.0442L31.9989 26.9521L28.2704 30.6806H28.27L27.8419 31.1091L26.9581 31.9929L26.9512 31.9998L26.9581 32.0071L31.9989 37.0479L37.0442 32.0026L37.0466 31.9998L37.0421 31.9974Z" fill="#F3BA2F"/>
</svg>
