<svg width="40" height="40" viewBox="0 0 20 20" fill="none" xmlns="http://www.w3.org/2000/svg">
<circle cx="10" cy="10" r="10" fill="#1969FF"/>
<path fill-rule="evenodd" clip-rule="evenodd" d="M9.44557 3.68992L6.27107 5.36683C6.07976 5.46789 5.98153 5.6116 5.96743 5.76553H5.96601V5.78699C5.96553 5.79871 5.96553 5.81048 5.96601 5.82228V14.1517C5.96547 14.1633 5.96551 14.1774 5.96601 14.1945C5.97083 14.3599 6.06819 14.526 6.27107 14.6332L9.44557 16.3101C9.75667 16.4744 10.23 16.4744 10.5411 16.3101L13.7156 14.6332C13.9194 14.5256 14.0232 14.3606 14.0272 14.1945H14.0274V14.1854V14.1836V5.81613V5.81487V5.76553H14.0243C14.0059 5.61328 13.903 5.4658 13.7156 5.36683L10.5411 3.68992C10.23 3.52558 9.75667 3.52558 9.44557 3.68992ZM6.46568 14.1779L9.44557 15.7437C9.62505 15.8396 9.8118 15.933 9.99335 15.9336C10.1605 15.9342 10.3231 15.8544 10.4875 15.7738L10.4875 15.7738L10.5193 15.7583L13.5277 14.1644V10.468L10.5411 12.0456C10.23 12.21 9.75667 12.21 9.44557 12.0456L6.46568 10.4715V14.1779ZM6.46568 9.36857L9.30678 7.86777L6.46568 6.36698V9.36857ZM10.6799 7.86777L13.5277 6.36346V9.37208L10.6799 7.86777ZM10.3078 4.13181L13.4823 5.80872L13.4895 5.81265L13.4945 5.8155L13.4918 5.81706L13.4823 5.82228L10.3078 7.49919C10.1427 7.5864 9.84401 7.5864 9.67893 7.49919L6.50443 5.82228L6.4972 5.81835L6.49221 5.8155L6.4949 5.81394L6.50443 5.80872L9.67893 4.13181C9.84401 4.04461 10.1427 4.04461 10.3078 4.13181ZM10.3078 8.23635L13.4823 9.91326L13.4895 9.91719L13.4945 9.92004L13.4918 9.9216L13.4823 9.92682L10.3078 11.6037C10.288 11.6142 10.2663 11.6234 10.2432 11.6313V8.20878C10.2663 8.21672 10.288 8.22591 10.3078 8.23635ZM9.74352 8.20878C9.72038 8.21672 9.69869 8.22591 9.67893 8.23635L6.50443 9.91326L6.4949 9.91848L6.49221 9.92004L6.4972 9.92289L6.50443 9.92682L9.67893 11.6037C9.69869 11.6142 9.72038 11.6234 9.74352 11.6313V8.20878ZM13.9968 4.3157L13.7382 4.7433L13.9185 4.85213L13.9772 4.88809C14.027 4.91892 14.0679 4.94515 14.105 4.97019L14.1147 4.97674C14.2839 5.09199 14.3765 5.18671 14.4383 5.31066C14.5128 5.46019 14.5503 5.67246 14.5503 5.99541H15.05L15.05 5.97294C15.0464 5.23548 14.8666 4.88098 14.3843 4.55582C14.3392 4.5254 14.2909 4.49445 14.2325 4.45843L14.1986 4.4376L13.9968 4.3157ZM6.26187 15.2634L6.00326 15.691L5.80145 15.5691L5.76752 15.5482C5.70917 15.5122 5.66081 15.4813 5.61569 15.4508C5.13346 15.1257 4.95361 14.7712 4.95007 14.0337L4.95001 14.0113H5.44968C5.44968 14.3342 5.48721 14.5465 5.56172 14.696C5.62348 14.82 5.71615 14.9147 5.88535 15.0299L5.89501 15.0365C5.93215 15.0615 5.97305 15.0877 6.02284 15.1186L6.08156 15.1545L6.26187 15.2634Z" fill="white"/>
</svg>