<svg width="44" height="44" viewBox="0 0 44 44" fill="none" xmlns="http://www.w3.org/2000/svg">
    <path d="M26.0974 20.0878C27.6433 20.0878 28.361 21.3739 28.361 22.9816C28.361 24.5892 27.6433 25.8943 26.0974 25.8943C24.4963 25.8943 23.797 24.5135 23.797 22.9816C23.797 21.4496 24.4963 20.0878 26.0974 20.0878ZM21.3125 18.1209V31.625H23.8889V26.9534H24.3675C24.8644 27.6342 25.6189 28.0882 26.9256 28.0882C29.41 28.0882 30.9375 25.951 30.9375 22.9816C30.9375 20.05 29.4284 17.875 26.9256 17.875C25.6005 17.875 24.7907 18.3478 24.2754 19.0098H23.797V18.1209H21.3125Z" fill="white" />
    <path d="M16.5 18.5625C18.0188 18.5625 19.25 17.3313 19.25 15.8125C19.25 14.2937 18.0188 13.0625 16.5 13.0625C14.9812 13.0625 13.75 14.2937 13.75 15.8125C13.75 17.3313 14.9812 18.5625 16.5 18.5625Z" fill="white" />
    <path d="M25.232 6.875C19.1102 6.875 14.1484 11.8377 14.1484 17.9586C14.1484 17.9667 14.1484 17.9739 14.1484 17.982L14.1495 17.9994C14.1647 18.2879 14.4053 18.5142 14.6949 18.5142H35.7692C36.0587 18.5142 36.2993 18.2889 36.3146 17.9994L36.3156 17.982C36.3156 17.9739 36.3156 17.9667 36.3156 17.9586C36.3156 11.8377 31.3529 6.875 25.232 6.875Z" fill="#53CBC8" />
    <path d="M6.81119 30.335C6.81119 30.7071 6.50943 31.0099 6.13631 31.0099C5.76421 31.0099 5.46143 30.7082 5.46143 30.335C5.46143 29.9629 5.76319 29.6602 6.13631 29.6602C6.50943 29.6602 6.81119 29.9619 6.81119 30.335Z" fill="#E1147B" />
    <path d="M35.0333 26.6031H12.4196C11.917 26.6031 11.5969 27.1403 11.8354 27.5838C11.8395 27.5909 11.8425 27.5981 11.8466 27.6052C11.9618 27.8203 12.1871 27.9529 12.4308 27.9529H35.021C35.2647 27.9529 35.49 27.8203 35.6052 27.6052C35.6093 27.5981 35.6123 27.5909 35.6164 27.5838C35.856 27.1403 35.5358 26.6031 35.0333 26.6031Z" fill="#E1147B" />
    <path d="M38.0385 20.4882H12.4194C12.0371 20.4882 11.7364 20.8094 11.7558 21.1906C11.7558 21.1978 11.7568 21.2049 11.7568 21.212C11.7751 21.5627 12.0677 21.837 12.4205 21.837H38.0375C38.3892 21.837 38.6818 21.5627 38.7012 21.212C38.7012 21.2049 38.7022 21.1978 38.7022 21.1906C38.7215 20.8094 38.4198 20.4882 38.0385 20.4882Z" fill="#E1147B" />
    <path d="M28.3947 35.7753H16.8493C16.1479 35.7753 15.9267 36.7183 16.5526 37.0343C16.5669 37.0414 16.5812 37.0486 16.5944 37.0557C16.6862 37.1016 16.7881 37.125 16.8911 37.125H28.3518C28.4548 37.125 28.5567 37.1016 28.6485 37.0557C28.6628 37.0486 28.677 37.0414 28.6903 37.0343C29.3173 36.7183 29.096 35.7753 28.3947 35.7753Z" fill="#E1147B" />
    <path d="M35.4494 32.7173H23.904C23.2026 32.7173 22.9813 33.6603 23.6073 33.9764C23.6216 33.9835 23.6358 33.9907 23.6491 33.9978C23.7408 34.0437 23.8428 34.0671 23.9458 34.0671H35.4065C35.5095 34.0671 35.6115 34.0437 35.7032 33.9978C35.7175 33.9907 35.7317 33.9835 35.745 33.9764C36.3709 33.6603 36.1507 32.7173 35.4494 32.7173Z" fill="#E1147B" />
    <path d="M19.7048 30.7969C19.6987 30.7897 19.6916 30.7826 19.6854 30.7765C19.2899 30.3534 19.5927 29.6602 20.1727 29.6602H38.9115C39.4915 29.6602 39.7943 30.3524 39.3988 30.7765C39.3926 30.7836 39.3855 30.7907 39.3794 30.7969C39.253 30.9314 39.0766 31.0089 38.8921 31.0089H20.1921C20.0076 31.0089 19.8312 30.9314 19.7048 30.7969Z" fill="#E1147B" />
    <path d="M8.54779 29.6602H17.4956C18.197 29.6602 18.4182 30.6032 17.7923 30.9192C17.778 30.9263 17.7637 30.9335 17.7505 30.9406C17.6587 30.9865 17.5568 31.0099 17.4538 31.0099H8.5906C8.48764 31.0099 8.38569 30.9865 8.29394 30.9406C8.27967 30.9335 8.26539 30.9263 8.25214 30.9192C7.62517 30.6032 7.8464 29.6602 8.54779 29.6602Z" fill="#E1147B" />
    <path d="M10.6862 21.1619C10.6862 21.534 10.3844 21.8368 10.0113 21.8368C9.6392 21.8368 9.33643 21.535 9.33643 21.1619C9.33643 20.7898 9.63819 20.487 10.0113 20.487C10.3844 20.488 10.6862 20.7898 10.6862 21.1619Z" fill="#E1147B" />
    <path d="M26.5879 24.4021C26.59 24.395 26.592 24.3878 26.594 24.3807C26.7082 23.9597 26.3881 23.5447 25.9518 23.5447H7.20999C6.77366 23.5447 6.45355 23.9586 6.56773 24.3807C6.56977 24.3878 6.57181 24.395 6.57384 24.4021C6.65234 24.6927 6.91537 24.8945 7.21509 24.8945H25.9446C26.2464 24.8945 26.5084 24.6927 26.5879 24.4021Z" fill="#E1147B" />
    <path d="M5.47476 24.2196C5.47476 24.5917 5.173 24.8945 4.79988 24.8945C4.42778 24.8945 4.125 24.5927 4.125 24.2196C4.125 23.8475 4.42676 23.5447 4.79988 23.5447C5.173 23.5458 5.47476 23.8475 5.47476 24.2196Z" fill="#E1147B" />
    <path d="M10.6862 27.2773C10.6862 27.6494 10.3844 27.9522 10.0113 27.9522C9.6392 27.9522 9.33643 27.6504 9.33643 27.2773C9.33643 26.9052 9.63819 26.6024 10.0113 26.6024C10.3844 26.6034 10.6862 26.9052 10.6862 27.2773Z" fill="#E1147B" />
    <path d="M22.1686 33.3922C22.1686 33.7643 21.8669 34.0671 21.4937 34.0671C21.1216 34.0671 20.8188 33.7654 20.8188 33.3922C20.8188 33.0201 21.1206 32.7173 21.4937 32.7173C21.8669 32.7173 22.1686 33.0191 22.1686 33.3922Z" fill="#E1147B" />
    <path d="M15.1144 36.4502C15.1144 36.8223 14.8127 37.125 14.4395 37.125C14.0674 37.125 13.7646 36.8233 13.7646 36.4502C13.7646 36.078 14.0664 35.7753 14.4395 35.7753C14.8127 35.7753 15.1144 36.078 15.1144 36.4502Z" fill="#E1147B" />
</svg>
    