<svg width="44" height="44" viewBox="0 0 44 44" fill="none" xmlns="http://www.w3.org/2000/svg">
    <path d="M11.4038 35.75C12.2891 35.75 13.1744 35.3611 13.7831 34.6389L35.1966 9.75C34.5879 8.80556 33.5919 8.25 32.5406 8.25C31.6553 8.25 30.77 8.63889 30.1614 9.30556L8.63721 34.1389C9.19053 35.1389 10.2418 35.75 11.4038 35.75Z" fill="url(#paint0_linear_3834_20393)" />
    <path d="M11.4039 35.75C11.9019 35.75 12.3999 35.6389 12.8426 35.4167V14.5833L29.4975 34.6389C30.1061 35.3611 30.9914 35.75 31.9321 35.75H32.5961C34.3114 35.75 35.75 34.3611 35.75 32.5833V11.4167C35.6393 9.63889 34.256 8.25 32.5407 8.25C32.0428 8.25 31.5448 8.36111 31.1021 8.58333V29.4167L14.4472 9.36111C13.8385 8.63889 12.9532 8.25 12.0126 8.25H11.4039C9.6333 8.25 8.25 9.63889 8.25 11.4167V32.6389C8.25 34.3611 9.6333 35.75 11.4039 35.75Z" fill="#24272A" />
    <defs>
        <linearGradient id="paint0_linear_3834_20393" x1="9.16779" y1="34.8514" x2="34.8476" y2="9.27488" gradientUnits="userSpaceOnUse">
            <stop offset="0.21" stop-color="#24272A" />
            <stop offset="0.42" stop-color="#24272A" stop-opacity="0" />
            <stop offset="0.59" stop-color="#24272A" stop-opacity="0" />
            <stop offset="0.81" stop-color="#24272A" />
        </linearGradient>
    </defs>
</svg>
    