<svg width="44" height="44" viewBox="0 0 44 44" fill="none" xmlns="http://www.w3.org/2000/svg">
    <circle cx="22" cy="22" r="18.5625" fill="#FF0420" />
    <path d="M15.8484 27.5C14.6244 27.5 13.6215 27.2148 12.8398 26.6444C12.0683 26.0639 11.6826 25.2389 11.6826 24.1694C11.6826 23.9454 11.7083 23.6704 11.7598 23.3444C11.8935 22.6111 12.0838 21.7301 12.3306 20.7014C13.0301 17.9005 14.8352 16.5 17.7461 16.5C18.5381 16.5 19.2478 16.6324 19.8753 16.8972C20.5027 17.1519 20.9964 17.5389 21.3564 18.0583C21.7164 18.5676 21.8964 19.1787 21.8964 19.8917C21.8964 20.1056 21.8707 20.3755 21.8193 20.7014C21.665 21.6079 21.4798 22.4889 21.2638 23.3444C20.9038 24.7398 20.2815 25.7838 19.397 26.4764C18.5124 27.1588 17.3295 27.5 15.8484 27.5ZM16.0644 25.3C16.6404 25.3 17.1289 25.1319 17.5301 24.7958C17.9415 24.4597 18.2347 23.9454 18.4095 23.2528C18.6461 22.2954 18.8261 21.4602 18.9495 20.7472C18.9907 20.5333 19.0113 20.3143 19.0113 20.0903C19.0113 19.1634 18.5226 18.7 17.5455 18.7C16.9695 18.7 16.4758 18.8681 16.0644 19.2042C15.6632 19.5403 15.3752 20.0546 15.2004 20.7472C15.0152 21.4296 14.8301 22.2648 14.6449 23.2528C14.6038 23.4565 14.5832 23.6704 14.5832 23.8944C14.5832 24.8315 15.0769 25.3 16.0644 25.3Z" fill="white" />
    <path d="M23.4619 27.3472C23.3488 27.3472 23.2614 27.3116 23.1997 27.2403C23.1482 27.1588 23.1328 27.0671 23.1533 26.9653L25.2825 17.0347C25.3031 16.9227 25.3597 16.831 25.4522 16.7597C25.5448 16.6884 25.6425 16.6528 25.7454 16.6528H29.8494C30.9911 16.6528 31.9065 16.887 32.5957 17.3556C33.2951 17.8241 33.6449 18.5014 33.6449 19.3875C33.6449 19.6421 33.614 19.9069 33.5523 20.1819C33.2951 21.3532 32.7757 22.2189 31.994 22.7792C31.2226 23.3394 30.1631 23.6194 28.8156 23.6194H26.7328L26.0231 26.9653C26.0025 27.0773 25.9459 27.1689 25.8533 27.2403C25.7608 27.3116 25.6631 27.3472 25.5602 27.3472H23.4619ZM28.9237 21.5111C29.3557 21.5111 29.7311 21.394 30.05 21.1597C30.3791 20.9255 30.5951 20.5893 30.698 20.1514C30.7288 19.9782 30.7443 19.8255 30.7443 19.693C30.7443 19.3977 30.6568 19.1736 30.482 19.0208C30.3071 18.8579 30.0088 18.7764 29.5871 18.7764H27.7357L27.1494 21.5111H28.9237Z" fill="white" />
</svg>
    