<svg width="32" height="32" viewBox="0 0 32 32" fill="none" xmlns="http://www.w3.org/2000/svg">
<path fill-rule="evenodd" clip-rule="evenodd" d="M16.2048 0.0273868C16.0593 -0.00912894 15.8839 -0.00912894 15.7384 0.0273868L6.20907 2.93987L6.20411 2.94153C5.75777 3.09089 5.53922 3.54125 5.64781 3.9773L5.6503 3.9873L5.65381 3.997C5.79951 4.39925 6.24264 4.66881 6.69724 4.51832L15.9855 1.68408L25.473 4.60383C25.9319 4.75587 26.3753 4.48024 26.5185 4.04898C26.6711 3.58932 26.3979 3.14292 25.9664 2.99851L16.2144 0.0297927L16.2048 0.0273868ZM1.7663 5.02702C1.72232 4.68815 1.9046 4.35609 2.1862 4.18647L2.19594 4.18061L2.20628 4.17589C2.30031 4.13298 2.3985 4.10801 2.49663 4.10005C2.57767 4.08859 2.66217 4.08924 2.74808 4.10361C3.09447 4.16157 3.35356 4.42285 3.41869 4.74725L8.87015 15.4265H23.3173C23.3467 15.4265 23.3757 15.4281 23.4044 15.4312L28.5501 4.76442C28.5902 4.54516 28.7207 4.35393 28.9142 4.23959C29.1491 4.07694 29.4648 4.05174 29.7369 4.17589C30.009 4.30008 30.1639 4.54801 30.1926 4.81541L30.361 5.80129C30.3995 5.97382 30.5637 7.12327 30.5637 8.86449C30.5637 10.5892 30.392 12.8592 29.7623 15.4164C29.1611 17.8307 28.0726 20.7361 26.0952 23.5843C24.1178 26.4325 21.2533 29.2498 17.1327 31.4621L17.1314 31.4628L16.369 31.888L16.3679 31.8887C16.1083 32.0371 15.8348 32.0371 15.5752 31.8887L15.5741 31.888L14.8117 31.4628L14.8104 31.4621C10.6898 29.2498 7.82531 26.4325 5.84794 23.5843C3.87117 20.737 2.78205 17.8319 2.23713 15.3858C1.60788 12.8293 1.43622 10.5315 1.43622 8.83596C1.43622 7.09476 1.60044 5.94532 1.63895 5.77277L1.7663 5.02702ZM9.71424 17.0801H22.5282L15.9894 29.373L9.71424 17.0801ZM3.10873 7.75769C3.09431 8.0801 3.08487 8.4414 3.08487 8.83596C3.08487 10.4223 3.22601 12.602 3.8178 14.9784C4.38152 17.2704 5.396 19.9577 7.22672 22.6157C8.78815 24.8583 10.9445 27.1024 13.9602 29.014L3.10873 7.75769ZM18.0543 28.9823C21.0324 27.083 23.1931 24.8684 24.7446 22.616C26.5752 19.9583 27.5898 17.2429 28.1537 14.9784C28.7455 12.602 28.8867 10.4223 28.8867 8.83596C28.8867 8.48385 28.8791 8.15823 28.8673 7.86309L24.8804 16.1275V16.1602L18.0543 28.9823Z" fill="white"/>
</svg>
